# This file uses centimeters as units for non-parametric coordinates.

mtllib InsideBend_LP.mtl
g default
v 2.994528 0.000000 -2.001745
v 2.994528 0.000000 -2.501745
v 2.994528 0.000000 -3.001745
v 2.994528 1.000000 -2.001745
v 2.994528 1.000000 -2.501745
v 2.994528 0.500000 -3.001745
v 1.575606 1.000000 -1.437427
v 1.231227 1.000000 -1.799609
v 0.888713 0.500000 -2.163545
v 1.575606 0.000000 -1.437427
v 1.231227 0.000000 -1.799609
v 0.887471 0.000000 -2.162378
v 0.994846 1.000000 0.000467
v 0.494846 1.000000 0.000334
v -0.005154 0.500000 0.000201
v 0.994846 0.000000 0.000467
v 0.494846 0.000000 0.000334
v -0.005154 0.000000 0.000201
v 1.148712 1.000000 -0.787035
v 0.690316 1.000000 -0.981782
v 0.228621 0.500000 -1.173430
v 0.228621 0.000000 -1.173430
v 0.690316 0.000000 -0.981782
v 1.148712 0.000000 -0.787035
v 1.331274 1.000000 -1.136310
v 0.922828 1.000000 -1.420987
v 0.512052 0.500000 -1.703475
v 0.511831 0.000000 -1.703268
v 0.922828 0.000000 -1.420987
v 1.331274 0.000000 -1.136310
v 1.034538 0.000000 -0.402651
v 0.544304 0.000000 -0.500451
v 0.053937 0.000000 -0.598127
v 0.053937 0.500000 -0.598127
v 0.544304 1.000000 -0.500451
v 1.034538 1.000000 -0.402651
v 1.082720 1.000000 -0.598316
v 0.605579 1.000000 -0.744800
v 0.127148 0.500000 -0.890069
v 0.127148 0.000000 -0.890069
v 0.605579 0.000000 -0.744800
v 1.082720 0.000000 -0.598316
v 0.357380 0.000000 -1.445480
v 0.357380 0.500000 -1.445480
v 0.796494 1.000000 -1.207988
v 1.231826 1.000000 -0.966940
v 1.231826 0.000000 -0.966940
v 0.796494 0.000000 -1.207988
v 1.446183 1.000000 -1.293593
v 1.068170 1.000000 -1.618796
v 0.689828 0.500000 -1.943690
v 0.689120 0.000000 -1.943025
v 1.068170 0.000000 -1.618796
v 1.446183 0.000000 -1.293593
v 1.004853 0.000000 -0.202132
v 0.507274 0.000000 -0.251274
v 0.009695 0.000000 -0.300415
v 0.009695 0.500000 -0.300415
v 0.507274 1.000000 -0.251274
v 1.004853 1.000000 -0.202132
v 2.216998 1.000000 -1.857764
v 2.032498 1.000000 -2.326070
v 1.848688 0.500000 -2.795026
v 1.848688 0.000000 -2.795026
v 2.032498 0.000000 -2.326070
v 2.216998 0.000000 -1.857764
v 1.873857 0.000000 -1.680260
v 1.605203 0.000000 -2.104548
v 1.338117 0.000000 -2.530310
v 1.340683 0.500000 -2.532722
v 1.605203 1.000000 -2.104548
v 1.873857 1.000000 -1.680260
v 2.594533 1.000000 -1.965648
v 2.499082 1.000000 -2.457912
v 2.404000 0.500000 -2.950523
v 2.404000 0.000000 -2.950523
v 2.499082 0.000000 -2.457912
v 2.594533 0.000000 -1.965648
v 2.792407 1.000000 -1.992741
v 2.744041 1.000000 -2.490825
v 2.695781 0.500000 -2.989009
v 2.695781 0.000000 -2.989009
v 2.744041 0.000000 -2.490825
v 2.792407 0.000000 -1.992741
v 2.121081 0.000000 -2.885987
v 2.121081 0.500000 -2.885987
v 2.261320 1.000000 -2.402988
v 2.402192 1.000000 -1.920586
v 2.402192 0.000000 -1.920586
v 2.261320 0.000000 -2.402988
v 2.040432 1.000000 -1.777504
v 1.813311 1.000000 -2.226479
v 1.588193 0.500000 -2.677337
v 1.586698 0.000000 -2.675932
v 1.813311 0.000000 -2.226479
v 2.040432 0.000000 -1.777504
v 1.718527 0.000000 -1.566640
v 1.410695 0.000000 -1.961936
v 1.104769 0.000000 -2.359023
v 1.106613 0.500000 -2.360756
v 1.410695 1.000000 -1.961936
v 1.718527 1.000000 -1.566640
vt 0.490556 0.500586
vt 0.490556 0.002530
vt 0.573504 0.002530
vt 0.573504 0.500586
vt 0.656453 0.500586
vt 0.656453 0.002530
vt 0.831863 0.500586
vt 0.831863 0.002530
vt 0.997759 0.002530
vt 0.997759 0.500586
vt 0.402292 0.002531
vt 0.485240 0.002531
vt 0.485240 0.500586
vt 0.402292 0.500586
vt 0.661210 0.002531
vt 0.744158 0.002531
vt 0.744158 0.500586
vt 0.661210 0.500586
vt 0.827106 0.002531
vt 0.827106 0.500586
vt 0.159429 0.001067
vt 0.275001 0.001067
vt 0.275001 0.232211
vt 0.159429 0.232211
vt 0.390573 0.001067
vt 0.390573 0.116639
vt 0.402292 0.500983
vt 0.485240 0.500983
vt 0.485240 0.999038
vt 0.402292 0.999038
vt 0.656453 0.999038
vt 0.573504 0.999038
vt 0.573504 0.500983
vt 0.656453 0.500983
vt 0.140148 0.997342
vt 0.140148 0.881770
vt 0.371293 0.881770
vt 0.371293 0.997342
vt 0.255721 0.766198
vt 0.371293 0.766198
vt 0.661210 0.500983
vt 0.744158 0.500983
vt 0.744158 0.999038
vt 0.661210 0.999038
vt 0.827106 0.500983
vt 0.827106 0.999038
vt 0.490556 0.999038
vt 0.490556 0.500983
vt 0.831863 0.999038
vt 0.831863 0.500983
vt 0.997759 0.500983
vt 0.997759 0.999038
vt 0.997759 0.750011
vt 0.402292 0.750011
vt 0.485240 0.750011
vt 0.656453 0.750011
vt 0.573504 0.750011
vt 0.827106 0.750011
vt 0.490556 0.750011
vt 0.744158 0.750011
vt 0.831863 0.750011
vt 0.661210 0.750011
vt 0.997759 0.625497
vt 0.402292 0.625497
vt 0.485240 0.625497
vt 0.656453 0.874524
vt 0.573504 0.874524
vt 0.827106 0.874524
vt 0.490556 0.874524
vt 0.744158 0.874524
vt 0.831863 0.625497
vt 0.661210 0.874524
vt 0.831863 0.874524
vt 0.661210 0.625497
vt 0.744158 0.625497
vt 0.827106 0.625497
vt 0.490556 0.625497
vt 0.573504 0.625497
vt 0.485240 0.874524
vt 0.656453 0.625497
vt 0.997759 0.874524
vt 0.402292 0.874524
vt 0.997759 0.812267
vt 0.402292 0.812268
vt 0.485240 0.812268
vt 0.656453 0.687754
vt 0.573504 0.687754
vt 0.827106 0.687754
vt 0.490556 0.687754
vt 0.744158 0.687754
vt 0.831863 0.812267
vt 0.661210 0.687754
vt 0.827106 0.812268
vt 0.490556 0.812267
vt 0.573504 0.812267
vt 0.485240 0.687754
vt 0.656453 0.812267
vt 0.997759 0.687754
vt 0.402292 0.687754
vt 0.831863 0.687754
vt 0.661210 0.812268
vt 0.744158 0.812268
vt 0.997759 0.563240
vt 0.402292 0.563240
vt 0.485240 0.563240
vt 0.656453 0.936781
vt 0.573504 0.936781
vt 0.827106 0.936781
vt 0.490556 0.936781
vt 0.744158 0.936781
vt 0.831863 0.563240
vt 0.661210 0.936781
vt 0.831863 0.936781
vt 0.661210 0.563240
vt 0.744158 0.563240
vt 0.827106 0.563240
vt 0.490556 0.563240
vt 0.573504 0.563240
vt 0.485240 0.936781
vt 0.656453 0.563240
vt 0.997759 0.936781
vt 0.402292 0.936781
vt 0.997759 0.251558
vt 0.402292 0.251558
vt 0.485240 0.251558
vt 0.656453 0.251558
vt 0.573504 0.251558
vt 0.827106 0.251558
vt 0.490556 0.251558
vt 0.744158 0.251558
vt 0.831863 0.251558
vt 0.661210 0.251558
vt 0.831863 0.376072
vt 0.661210 0.127044
vt 0.744158 0.127044
vt 0.827106 0.127044
vt 0.490556 0.127044
vt 0.573504 0.127044
vt 0.485240 0.376072
vt 0.656453 0.127044
vt 0.997759 0.376072
vt 0.402292 0.376072
vt 0.997759 0.127044
vt 0.402292 0.127044
vt 0.485240 0.127044
vt 0.656453 0.376072
vt 0.573504 0.376072
vt 0.827106 0.376072
vt 0.490556 0.376072
vt 0.744158 0.376072
vt 0.831863 0.127044
vt 0.661210 0.376072
vt 0.997759 0.064787
vt 0.402292 0.064787
vt 0.485240 0.064787
vt 0.656453 0.438329
vt 0.573504 0.438329
vt 0.827106 0.438329
vt 0.490556 0.438329
vt 0.744158 0.438329
vt 0.831863 0.064787
vt 0.661210 0.438329
vt 0.827106 0.313815
vt 0.490556 0.313815
vt 0.573504 0.313815
vt 0.485240 0.189301
vt 0.656453 0.313815
vt 0.997759 0.189301
vt 0.402292 0.189301
vt 0.831863 0.189301
vt 0.661210 0.313815
vt 0.744158 0.313815
vt 0.997759 0.313815
vt 0.402292 0.313815
vt 0.485240 0.313815
vt 0.656453 0.189301
vt 0.573504 0.189301
vt 0.827106 0.189301
vt 0.490556 0.189301
vt 0.744158 0.189301
vt 0.831863 0.313815
vt 0.661210 0.189301
vt 0.831863 0.438329
vt 0.661210 0.064787
vt 0.744158 0.064787
vt 0.827106 0.064787
vt 0.490556 0.064787
vt 0.573504 0.064787
vt 0.485240 0.438329
vt 0.656453 0.064787
vt 0.997759 0.438329
vt 0.402292 0.438329
vn 1.000000 0.000000 -0.000000
vn 1.000000 0.000000 -0.000000
vn 1.000000 0.000000 -0.000000
vn 1.000000 0.000000 -0.000000
vn 1.000000 0.000000 -0.000000
vn 1.000000 0.000000 -0.000000
vn -0.000000 1.000000 0.000000
vn -0.224143 0.873116 -0.432929
vn -0.268872 0.872247 -0.408525
vn -0.000000 1.000000 0.000000
vn -0.323445 0.709796 -0.625758
vn -0.386823 0.709192 -0.589419
vn 0.000000 -1.000000 0.000000
vn 0.000000 -1.000000 0.000000
vn 0.000000 -1.000000 0.000000
vn 0.000000 -1.000000 0.000000
vn 0.000000 -1.000000 0.000000
vn 0.000000 -1.000000 0.000000
vn -0.459424 -0.000954 -0.888217
vn -0.459656 -0.000956 -0.888097
vn -0.549568 -0.000987 -0.835449
vn -0.549184 -0.000989 -0.835701
vn 0.547954 0.000000 0.836508
vn 0.547954 0.000000 0.836508
vn 0.459460 0.000000 0.888199
vn 0.459460 0.000000 0.888199
vn -0.000000 1.000000 0.000000
vn -0.469801 0.871181 -0.142585
vn -0.480799 0.871585 -0.095770
vn -0.000000 1.000000 0.000000
vn -0.676651 0.707083 -0.205368
vn -0.693483 0.707107 -0.138135
vn -0.000267 0.000000 1.000000
vn -0.000267 0.000000 1.000000
vn -0.000267 0.000000 1.000000
vn -0.000267 0.000000 1.000000
vn -0.000267 0.000000 1.000000
vn -0.000267 0.000000 1.000000
vn 0.000000 -1.000000 0.000000
vn 0.000000 -1.000000 -0.000000
vn -0.000000 -1.000000 -0.000000
vn 0.000000 -1.000000 0.000000
vn 0.000000 -1.000000 0.000000
vn -0.000000 -1.000000 -0.000000
vn -0.956863 0.000000 -0.290540
vn -0.956863 0.000000 -0.290540
vn -0.980733 0.000000 -0.195352
vn -0.980733 0.000000 -0.195352
vn 0.981228 0.000000 0.192852
vn 0.981228 0.000000 0.192852
vn 0.958606 0.000000 0.284735
vn 0.958606 0.000000 0.284735
vn -0.000000 1.000000 0.000000
vn -0.411432 0.869530 -0.273205
vn -0.435302 0.869982 -0.231612
vn -0.000000 1.000000 0.000000
vn -0.589639 0.706087 -0.392131
vn -0.624703 0.706477 -0.332622
vn -0.831905 0.000155 -0.554919
vn -0.831925 0.000155 -0.554888
vn -0.881879 0.000041 -0.471476
vn -0.881879 0.000041 -0.471476
vn 0.000000 -1.000000 0.000000
vn 0.000000 -1.000000 0.000000
vn 0.000000 -1.000000 0.000000
vn 0.000000 -1.000000 0.000000
vn 0.000000 -1.000000 0.000000
vn 0.000000 -1.000000 0.000000
vn 0.886240 0.000000 0.463227
vn 0.886240 0.000000 0.463227
vn 0.836059 0.000000 0.548640
vn 0.836059 0.000000 0.548640
vn -0.000000 1.000000 0.000000
vn -0.382602 0.869583 -0.312158
vn -0.548123 0.706170 -0.448202
vn -0.773819 0.000222 -0.633407
vn -0.773895 0.000222 -0.633314
vn 0.000000 -1.000000 0.000000
vn 0.000000 -1.000000 0.000000
vn 0.000000 -1.000000 0.000000
vn 0.776525 0.000000 0.630087
vn 0.776525 0.000000 0.630087
vn 0.000000 -1.000000 0.000000
vn 0.000000 -1.000000 0.000000
vn -0.000000 -1.000000 -0.000000
vn -0.995159 0.000000 -0.098283
vn -0.995159 0.000000 -0.098283
vn -0.703683 0.707107 -0.069496
vn -0.487546 0.871768 -0.048150
vn -0.000000 1.000000 0.000000
vn 0.995187 0.000000 0.097989
vn 0.995187 0.000000 0.097989
vn -0.000000 1.000000 0.000000
vn -0.454532 0.870686 -0.187903
vn -0.653646 0.706898 -0.270263
vn -0.923778 0.000000 -0.382930
vn -0.923778 0.000000 -0.382930
vn 0.000000 -1.000000 0.000000
vn 0.000000 -1.000000 0.000000
vn 0.000000 -1.000000 0.000000
vn 0.927033 0.000000 0.374980
vn 0.927033 0.000000 0.374980
vn -0.000000 1.000000 0.000000
vn -0.370289 0.866601 -0.334499
vn -0.525590 0.705925 -0.474790
vn -0.741656 0.000216 -0.670780
vn -0.741656 0.000216 -0.670780
vn 0.000000 -1.000000 0.000000
vn 0.000000 -1.000000 0.000000
vn 0.000000 -1.000000 0.000000
vn 0.743364 0.000000 0.668887
vn 0.743364 0.000000 0.668887
vn 0.000000 -1.000000 0.000000
vn -0.000000 -1.000000 -0.000000
vn -0.000000 -1.000000 -0.000000
vn -0.998782 0.000000 -0.049334
vn -0.998782 0.000000 -0.049334
vn -0.706671 0.706681 -0.034905
vn -0.489735 0.871536 -0.024190
vn -0.000000 1.000000 0.000000
vn 0.998782 0.000000 0.049334
vn 0.998782 0.000000 0.049334
vn -0.000000 1.000000 0.000000
vn -0.086513 0.873051 -0.479894
vn -0.131750 0.873410 -0.468826
vn -0.000000 1.000000 0.000000
vn -0.125581 0.708297 -0.694654
vn -0.190996 0.709132 -0.678714
vn -0.176450 0.000000 -0.984310
vn -0.176450 0.000000 -0.984310
vn -0.269646 0.000000 -0.962960
vn -0.269646 0.000000 -0.962960
vn 0.000000 -1.000000 0.000000
vn 0.000000 -1.000000 0.000000
vn 0.000000 -1.000000 0.000000
vn 0.000000 -1.000000 0.000000
vn 0.000000 -1.000000 0.000000
vn 0.000000 -1.000000 0.000000
vn 0.274760 0.000000 0.961513
vn 0.274760 0.000000 0.961513
vn 0.181828 0.000000 0.983330
vn 0.181828 0.000000 0.983330
vn 0.000000 -1.000000 0.000000
vn 0.000000 -1.000000 0.000000
vn 0.000000 -1.000000 0.000000
vn -0.632647 -0.000403 -0.774441
vn -0.632392 -0.000405 -0.774648
vn -0.446096 0.708027 -0.547446
vn -0.310911 0.871007 -0.380369
vn -0.000000 1.000000 0.000000
vn 0.631382 0.000000 0.775472
vn 0.631382 0.000000 0.775472
vn -0.000000 1.000000 0.000000
vn -0.042504 0.872662 -0.486472
vn -0.061761 0.707525 -0.703984
vn -0.086416 0.000000 -0.996259
vn -0.086416 0.000000 -0.996259
vn 0.000000 -1.000000 0.000000
vn 0.000000 -1.000000 0.000000
vn 0.000000 -1.000000 0.000000
vn 0.089879 0.000000 0.995953
vn 0.089879 0.000000 0.995953
vn -0.000000 1.000000 0.000000
vn -0.021035 0.872374 -0.488387
vn -0.030438 0.706872 -0.706686
vn -0.042593 0.000000 -0.999093
vn -0.042593 0.000000 -0.999093
vn 0.000000 -1.000000 0.000000
vn 0.000000 -1.000000 0.000000
vn 0.000000 -1.000000 0.000000
vn 0.044507 0.000000 0.999009
vn 0.044507 0.000000 0.999009
vn -0.365213 -0.000332 -0.930924
vn -0.365213 -0.000332 -0.930924
vn -0.257492 0.709709 -0.655753
vn -0.178001 0.873421 -0.453267
vn -0.000000 1.000000 0.000000
vn 0.367793 0.000000 0.929908
vn 0.367793 0.000000 0.929908
vn 0.000000 -1.000000 0.000000
vn 0.000000 -1.000000 0.000000
vn 0.000000 -1.000000 0.000000
vn 0.000000 -1.000000 0.000000
vn 0.000000 -1.000000 0.000000
vn 0.000000 -1.000000 0.000000
vn -0.671012 -0.000080 -0.741447
vn -0.671012 -0.000080 -0.741447
vn -0.474554 0.706902 -0.524488
vn -0.327212 0.873010 -0.361642
vn -0.000000 1.000000 0.000000
vn 0.670639 0.000000 0.741784
vn 0.670639 0.000000 0.741784
s 1
g InsideBend
usemtl initialShadingGroup
f 1/21/1 2/22/2 5/23/3 4/24/4
f 2/22/2 3/25/5 6/26/6 5/23/3
s 2
f 91/174/7 92/175/8 71/139/9 72/142/10
f 92/176/8 93/177/11 70/138/12 71/140/9
s 3
f 67/134/13 68/135/14 95/180/15 96/182/16
f 68/135/14 69/136/17 94/178/18 95/180/15
s 4
f 93/177/19 94/179/20 69/137/21 70/138/22
s 5
f 72/141/23 67/133/24 96/181/25 91/173/26
s 6
f 37/84/27 38/85/28 35/79/29 36/82/30
f 38/86/28 39/87/31 34/78/32 35/80/29
s 7
f 13/35/33 14/36/34 17/37/35 16/38/36
f 14/36/34 15/39/37 18/40/38 17/37/35
s 8
f 31/74/39 32/75/40 41/90/41 42/92/42
f 32/75/40 33/76/43 40/88/44 41/90/41
s 9
f 39/87/45 40/89/46 33/77/47 34/78/48
s 10
f 36/81/49 31/73/50 42/91/51 37/83/52
s 6
f 25/64/53 26/65/54 45/96/55 46/99/56
f 26/66/54 27/67/57 44/95/58 45/97/55
s 9
f 27/67/59 28/69/60 43/94/61 44/95/62
s 8
f 48/102/63 43/93/64 28/68/65 29/70/66
f 47/101/67 48/102/63 29/70/66 30/72/68
s 10
f 46/98/69 47/100/70 30/71/71 25/63/72
s 6
f 49/104/73 50/105/74 26/65/54 25/64/53
f 50/106/74 51/107/75 27/67/57 26/66/54
s 9
f 51/107/76 52/109/77 28/69/60 27/67/59
s 8
f 29/70/66 28/68/65 52/108/78 53/110/79
f 30/72/68 29/70/66 53/110/79 54/112/80
s 10
f 25/63/72 30/71/71 54/111/81 49/103/82
s 8
f 55/114/83 56/115/84 32/75/40 31/74/39
f 56/115/84 57/116/85 33/76/43 32/75/40
s 9
f 34/78/48 33/77/47 57/117/86 58/118/87
s 6
f 35/80/29 34/78/32 58/118/88 59/120/89
f 36/82/30 35/79/29 59/119/89 60/122/90
s 10
f 60/121/91 55/113/92 31/73/50 36/81/49
s 6
f 19/54/93 20/55/94 38/85/28 37/84/27
f 20/56/94 21/57/95 39/87/31 38/86/28
s 9
f 21/57/96 22/59/97 40/89/46 39/87/45
s 8
f 41/90/41 40/88/44 22/58/98 23/60/99
f 42/92/42 41/90/41 23/60/99 24/62/100
s 10
f 37/83/52 42/91/51 24/61/101 19/53/102
s 9
f 44/95/62 43/94/61 22/59/97 21/57/96
s 6
f 45/97/55 44/95/58 21/57/95 20/56/94
f 46/99/56 45/96/55 20/55/94 19/54/93
s 10
f 19/53/102 24/61/101 47/100/70 46/98/69
s 8
f 24/62/100 23/60/99 48/102/63 47/101/67
f 23/60/99 22/58/98 43/93/64 48/102/63
s 6
f 7/27/103 8/28/104 50/105/74 49/104/73
f 8/31/104 9/32/105 51/107/75 50/106/74
s 9
f 12/47/106 52/109/77 51/107/76 9/32/107
s 8
f 53/110/79 52/108/78 12/46/108 11/43/109
f 54/112/80 53/110/79 11/43/109 10/44/110
s 10
f 49/103/82 54/111/81 10/50/111 7/51/112
s 8
f 16/41/113 17/42/114 56/115/84 55/114/83
f 17/42/114 18/45/115 57/116/85 56/115/84
s 9
f 58/118/87 57/117/86 18/48/116 15/33/117
s 6
f 59/120/89 58/118/88 15/33/118 14/34/119
f 60/122/90 59/119/89 14/29/119 13/30/120
s 10
f 16/49/121 55/113/92 60/121/91 13/52/122
s 2
f 73/144/123 74/145/124 87/166/125 88/169/126
f 74/146/124 75/147/127 86/165/128 87/167/125
s 4
f 75/147/129 76/149/130 85/164/131 86/165/132
s 3
f 90/172/133 85/163/134 76/148/135 77/150/136
f 89/171/137 90/172/133 77/150/136 78/152/138
s 5
f 88/168/139 89/170/140 78/151/141 73/143/142
s 3
f 97/184/143 98/185/144 68/135/14 67/134/13
f 98/185/144 99/186/145 69/136/17 68/135/14
s 4
f 70/138/22 69/137/21 99/187/146 100/188/147
s 2
f 71/140/9 70/138/12 100/188/148 101/190/149
f 72/142/10 71/139/9 101/189/149 102/192/150
s 5
f 102/191/151 97/183/152 67/133/24 72/141/23
s 2
f 79/154/153 80/155/154 74/145/124 73/144/123
f 80/156/154 81/157/155 75/147/127 74/146/124
s 4
f 81/157/156 82/159/157 76/149/130 75/147/129
s 3
f 77/150/136 76/148/135 82/158/158 83/160/159
f 78/152/138 77/150/136 83/160/159 84/162/160
s 5
f 73/143/142 78/151/141 84/161/161 79/153/162
s 2
f 4/11/163 5/12/164 80/155/154 79/154/153
f 5/5/164 6/4/165 81/157/155 80/156/154
s 4
f 3/1/166 82/159/157 81/157/156 6/4/167
s 3
f 83/160/159 82/158/158 3/20/168 2/17/169
f 84/162/160 83/160/159 2/17/169 1/18/170
s 5
f 79/153/162 84/161/161 1/8/171 4/9/172
s 4
f 86/165/132 85/164/131 64/129/173 63/127/174
s 2
f 87/167/125 86/165/128 63/127/175 62/126/176
f 88/169/126 87/166/125 62/125/176 61/124/177
s 5
f 61/123/178 66/131/179 89/170/140 88/168/139
s 3
f 66/132/180 65/130/181 90/172/133 89/171/137
f 65/130/181 64/128/182 85/163/134 90/172/133
s 2
f 61/124/177 62/125/176 92/175/8 91/174/7
f 62/126/176 63/127/175 93/177/11 92/176/8
s 4
f 63/127/174 64/129/173 94/179/20 93/177/19
s 3
f 95/180/15 94/178/18 64/128/182 65/130/181
f 96/182/16 95/180/15 65/130/181 66/132/180
s 5
f 91/173/26 96/181/25 66/131/179 61/123/178
s 3
f 10/15/183 11/16/184 98/185/144 97/184/143
f 11/16/184 12/19/185 99/186/145 98/185/144
s 4
f 100/188/147 99/187/146 12/2/186 9/3/187
s 2
f 101/190/149 100/188/148 9/3/188 8/6/189
f 102/192/150 101/189/149 8/13/189 7/14/190
s 5
f 10/7/191 97/183/152 102/191/151 7/10/192
