# This file uses centimeters as units for non-parametric coordinates.

mtllib OutsideCorner_LP.mtl
g default
v -1.000000 0.000000 -4.000000
v -0.500000 0.000000 -3.500000
v 0.000000 0.000000 -3.000000
v -1.000000 1.000000 -4.000000
v -0.500000 1.000000 -3.500000
v 0.000000 0.500000 -3.000000
v 3.000000 1.000000 -4.000000
v 3.000000 1.000000 -3.500000
v 3.000000 0.500000 -3.000000
v 3.000000 0.000000 -4.000000
v 3.000000 0.000000 -3.500000
v 3.000000 0.000000 -3.000000
v -1.000000 0.000000 0.000000
v -0.500000 0.000000 0.000000
v 0.000000 0.000000 0.000000
v -1.000000 1.000000 0.000000
v -0.500000 1.000000 0.000000
v 0.000000 0.500000 0.000000
vt 0.623252 0.362774
vt 0.567261 0.362774
vt 0.567261 0.250791
vt 0.623252 0.250791
vt 0.511270 0.306783
vt 0.511270 0.250791
vt 0.168776 0.546850
vt 0.168776 0.882797
vt 0.112785 0.882797
vt 0.112785 0.546850
vt 0.056793 0.546850
vt 0.056793 0.938788
vt 0.767908 0.452171
vt 0.767908 0.004242
vt 0.879890 0.004242
vt 0.879890 0.452171
vt 0.000265 0.999014
vt 0.056256 0.943022
vt 0.449922 0.943022
vt 0.449922 0.999014
vt 0.000265 0.551084
vt 0.056256 0.551084
vt 0.113974 0.887031
vt 0.449922 0.887031
vt 0.447979 0.000570
vt 0.447979 0.056561
vt 0.056040 0.056561
vt 0.000049 0.000570
vt 0.447979 0.112552
vt 0.112032 0.112552
vt 0.056040 0.448499
vt 0.000049 0.448499
vt 0.112032 0.448499
vt 0.587664 0.789668
vt 0.587664 0.453721
vt 0.643655 0.453721
vt 0.643655 0.789668
vt 0.998008 0.004242
vt 0.998008 0.452171
vt 0.886026 0.452171
vt 0.886026 0.004242
vt 0.379764 0.253576
vt 0.435755 0.253576
vt 0.435755 0.365558
vt 0.379764 0.365558
vt 0.491746 0.253576
vt 0.491746 0.309567
vn 0.000000 1.000000 0.000000
vn 0.000000 0.967818 0.251653
vn 0.000000 0.907009 0.421111
vn 0.000000 1.000000 0.000000
vn 0.000000 0.707107 0.707107
vn 0.000000 0.707107 0.707107
vn 1.000000 0.000000 0.000000
vn 1.000000 0.000000 0.000000
vn 1.000000 0.000000 0.000000
vn 1.000000 0.000000 0.000000
vn 1.000000 0.000000 0.000000
vn 1.000000 0.000000 0.000000
vn 0.000000 -1.000000 0.000000
vn 0.000000 -1.000000 0.000000
vn 0.000000 -1.000000 0.000000
vn 0.000000 -1.000000 0.000000
vn 0.000000 -1.000000 0.000000
vn 0.000000 -1.000000 0.000000
vn 0.000000 0.000000 1.000000
vn 0.000000 0.000000 1.000000
vn 0.000000 0.000000 1.000000
vn 0.000000 0.000000 1.000000
vn 0.000000 0.000000 -1.000000
vn 0.000000 0.000000 -1.000000
vn 0.000000 0.000000 -1.000000
vn 0.000000 0.000000 -1.000000
vn 0.000000 0.000000 1.000000
vn 0.000000 0.000000 1.000000
vn 0.000000 0.000000 1.000000
vn 0.000000 0.000000 1.000000
vn 0.000000 0.000000 1.000000
vn 0.000000 0.000000 1.000000
vn 0.000000 1.000000 0.000000
vn 0.421111 0.907009 0.000000
vn 0.251653 0.967818 0.000000
vn 0.000000 1.000000 0.000000
vn 0.707107 0.707107 0.000000
vn 0.707107 0.707107 0.000000
vn 0.000000 -1.000000 0.000000
vn 0.000000 -1.000000 0.000000
vn 0.000000 -1.000000 0.000000
vn 0.000000 -1.000000 0.000000
vn 0.000000 -1.000000 0.000000
vn 0.000000 -1.000000 0.000000
vn 1.000000 0.000000 0.000000
vn 1.000000 0.000000 0.000000
vn 1.000000 0.000000 0.000000
vn 1.000000 0.000000 0.000000
vn -1.000000 0.000000 0.000000
vn -1.000000 0.000000 0.000000
vn -1.000000 0.000000 0.000000
vn -1.000000 0.000000 0.000000
s 1
g OutsideCorner
usemtl initialShadingGroup
f 4/17/1 5/18/2 8/19/3 7/20/4
f 5/18/2 6/23/5 9/24/6 8/19/3
s 2
f 7/1/7 8/2/8 11/3/9 10/4/10
f 8/2/8 9/5/11 12/6/12 11/3/9
s 3
f 10/25/13 11/26/14 2/27/15 1/28/16
f 11/26/14 12/29/17 3/30/18 2/27/15
s off
f 3/34/19 12/35/20 9/36/21 6/37/22
f 10/38/23 1/39/24 4/40/25 7/41/26
s 4
f 13/42/27 14/43/28 17/44/29 16/45/30
f 14/43/28 15/46/31 18/47/32 17/44/29
s 5
f 16/21/33 17/22/34 5/18/35 4/17/36
f 17/11/34 18/10/37 6/9/38 5/12/35
s 6
f 1/28/39 2/27/40 14/31/41 13/32/42
f 2/27/40 3/30/43 15/33/44 14/31/41
s off
f 15/7/45 3/8/46 6/9/47 18/10/48
f 1/13/49 13/14/50 16/15/51 4/16/52
