# This file uses centimeters as units for non-parametric coordinates.

mtllib JumpPad_HP.mtl
g default
v -0.749161 0.025622 0.711485
v -0.712875 0.010592 0.711485
v -0.712875 0.025622 0.747771
v -0.712875 0.061908 0.762801
v -0.749161 0.061908 0.747771
v -0.764191 0.061908 0.711485
v 0.749161 0.025622 0.711485
v 0.764191 0.061908 0.711485
v 0.749161 0.061908 0.747771
v 0.712875 0.061908 0.762801
v 0.712875 0.025622 0.747771
v 0.712875 0.010592 0.711485
v -0.749161 0.200846 0.711485
v -0.764191 0.164560 0.711485
v -0.749161 0.164560 0.747771
v -0.712875 0.164560 0.762801
v -0.712875 0.200846 0.747771
v -0.712875 0.215876 0.711485
v 0.749161 0.200846 0.711485
v 0.712875 0.215876 0.711485
v 0.712875 0.200846 0.747771
v 0.712875 0.164560 0.762801
v 0.749161 0.164560 0.747771
v 0.764191 0.164560 0.711485
v -0.749161 0.164560 -0.727656
v -0.764191 0.164560 -0.691370
v -0.749161 0.200846 -0.691370
v -0.712875 0.215876 -0.691370
v -0.712875 0.200846 -0.727656
v -0.712875 0.164560 -0.742686
v 0.749161 0.164560 -0.727656
v 0.712875 0.164560 -0.742686
v 0.712875 0.200846 -0.727656
v 0.712875 0.215876 -0.691370
v 0.749161 0.200846 -0.691370
v 0.764191 0.164560 -0.691370
v -0.749161 0.025622 -0.691370
v -0.764191 0.061908 -0.691370
v -0.749161 0.061908 -0.727656
v -0.712875 0.061908 -0.742686
v -0.712875 0.025622 -0.727656
v -0.712875 0.010592 -0.691370
v 0.749161 0.025622 -0.691370
v 0.712875 0.010592 -0.691370
v 0.712875 0.025622 -0.727656
v 0.712875 0.061908 -0.742686
v 0.749161 0.061908 -0.727656
v 0.764191 0.061908 -0.691370
v -0.742492 0.032291 0.741102
v 0.742492 0.032291 0.741102
v -0.742492 0.194177 0.741102
v 0.742492 0.194177 0.741102
v -0.742492 0.194177 -0.720987
v 0.742492 0.194177 -0.720987
v -0.742492 0.032291 -0.720987
v 0.742492 0.032291 -0.720987
vt 0.383394 0.991479
vt 0.383394 0.062494
vt 0.616606 0.991479
vt 0.633521 0.062494
vt 0.383394 0.187506
vt 0.616606 0.187506
vt 0.633521 0.187506
vt 0.133521 0.062494
vt 0.383394 0.491479
vt 0.616606 0.491479
vt 0.866479 0.187506
vt 0.866479 0.062494
vt 0.616606 0.758521
vt 0.383394 0.687506
vt 0.616606 0.687506
vt 0.616606 0.062494
vt 0.383394 0.258521
vt 0.616606 0.258521
vt 0.383394 0.562494
vt 0.616606 0.562494
vt 0.383394 0.758521
vt 0.366479 0.062494
vt 0.366479 0.187506
vt 0.133521 0.187506
vt 0.375000 0.990521
vt 0.365521 -0.000000
vt 0.384436 -0.000000
vt 0.384436 1.000000
vt 0.374982 0.062346
vt 0.634479 -0.000000
vt 0.625000 0.990521
vt 0.625018 0.062346
vt 0.615564 1.000000
vt 0.615564 -0.000000
vt 0.365521 0.250000
vt 0.375000 0.259479
vt 0.374982 0.187654
vt 0.382502 0.245412
vt 0.625000 0.259479
vt 0.634479 0.250000
vt 0.617498 0.245412
vt 0.625018 0.187654
vt 0.125000 0.204236
vt 0.375000 0.545764
vt 0.375000 0.490521
vt 0.134479 0.250000
vt 0.382502 0.504588
vt 0.625000 0.545764
vt 0.875000 0.204236
vt 0.617498 0.504588
vt 0.865521 0.250000
vt 0.625000 0.490521
vt 0.134479 -0.000000
vt 0.375000 0.759479
vt 0.375000 0.704236
vt 0.125000 0.045764
vt 0.382502 0.745412
vt 0.625000 0.759479
vt 0.865521 -0.000000
vt 0.617498 0.745412
vt 0.875000 0.045764
vt 0.625000 0.704236
vt 0.375000 1.000000
vt 0.375000 0.000000
vt 0.625000 0.000000
vt 0.625000 1.000000
vt 0.375000 0.250000
vt 0.625000 0.250000
vt 0.125000 0.250000
vt 0.375000 0.500000
vt 0.625000 0.500000
vt 0.875000 0.250000
vt 0.125000 0.000000
vt 0.375000 0.750000
vt 0.625000 0.750000
vt 0.875000 0.000000
vn -0.010078 -0.999897 0.010241
vn -0.381453 -0.924325 0.010814
vn -0.381453 -0.924325 -0.010814
vn -0.010078 -0.999897 -0.010241
vn -0.923996 -0.382393 0.002571
vn -0.994222 -0.106909 0.009615
vn -0.994222 -0.106909 -0.009615
vn -0.923996 -0.382393 -0.002571
vn -0.009463 -0.106919 0.994223
vn -0.002506 -0.382401 0.923993
vn 0.002506 -0.382401 0.923993
vn 0.009463 -0.106919 0.994223
vn -0.010650 -0.924319 0.381472
vn 0.010078 -0.999897 0.010241
vn 0.010650 -0.924319 0.381472
vn -0.924701 -0.075211 0.373190
vn -0.924701 0.075211 0.373190
vn -0.994222 0.106909 0.009615
vn -0.373184 -0.075250 0.924701
vn -0.009463 0.106919 0.994223
vn -0.373184 0.075250 0.924700
vn 0.994222 -0.106909 0.009615
vn 0.923996 -0.382393 0.002571
vn 0.923996 -0.382393 -0.002571
vn 0.994222 -0.106909 -0.009615
vn 0.381453 -0.924325 0.010814
vn 0.010078 -0.999897 -0.010241
vn 0.381453 -0.924325 -0.010814
vn 0.373184 -0.075250 0.924701
vn 0.373184 0.075250 0.924701
vn 0.009463 0.106919 0.994223
vn 0.924701 -0.075211 0.373190
vn 0.994222 0.106909 0.009615
vn 0.924701 0.075211 0.373190
vn -0.923996 0.382393 0.002571
vn -0.923996 0.382393 -0.002571
vn -0.994222 0.106909 -0.009615
vn -0.381453 0.924325 0.010814
vn -0.010078 0.999897 0.010241
vn -0.010078 0.999897 -0.010241
vn -0.381453 0.924325 -0.010814
vn -0.010650 0.924319 0.381472
vn 0.010650 0.924319 0.381472
vn 0.010078 0.999897 0.010241
vn -0.002506 0.382401 0.923993
vn 0.002506 0.382401 0.923993
vn 0.381453 0.924325 0.010814
vn 0.381453 0.924325 -0.010814
vn 0.010078 0.999897 -0.010241
vn 0.923996 0.382393 0.002571
vn 0.994222 0.106909 -0.009615
vn 0.923996 0.382393 -0.002571
vn -0.924701 0.075211 -0.373190
vn -0.924701 -0.075211 -0.373190
vn -0.373184 0.075250 -0.924701
vn -0.009463 0.106919 -0.994223
vn -0.009463 -0.106919 -0.994223
vn -0.373184 -0.075250 -0.924701
vn -0.002506 0.382401 -0.923993
vn 0.002506 0.382401 -0.923993
vn 0.009463 0.106919 -0.994223
vn -0.010650 0.924319 -0.381472
vn 0.010650 0.924319 -0.381472
vn 0.373184 0.075250 -0.924700
vn 0.373184 -0.075250 -0.924701
vn 0.009463 -0.106919 -0.994223
vn 0.924701 0.075211 -0.373190
vn 0.924701 -0.075211 -0.373190
vn -0.010650 -0.924319 -0.381472
vn 0.010650 -0.924319 -0.381472
vn -0.002506 -0.382401 -0.923993
vn 0.002506 -0.382401 -0.923993
vn -0.887919 -0.325269 0.325268
vn -0.325270 -0.887919 0.325269
vn -0.325270 -0.325270 0.887919
vn 0.325270 -0.887919 0.325269
vn 0.887919 -0.325269 0.325268
vn 0.325270 -0.325270 0.887918
vn -0.325269 0.887919 0.325269
vn -0.887919 0.325269 0.325268
vn -0.325270 0.325269 0.887919
vn 0.887919 0.325269 0.325268
vn 0.325269 0.887919 0.325269
vn 0.325269 0.325270 0.887919
vn -0.325269 0.325270 -0.887919
vn -0.887919 0.325269 -0.325268
vn -0.325269 0.887919 -0.325269
vn 0.887919 0.325269 -0.325268
vn 0.325270 0.325269 -0.887919
vn 0.325269 0.887919 -0.325269
vn -0.325270 -0.887919 -0.325269
vn -0.887919 -0.325269 -0.325268
vn -0.325270 -0.325270 -0.887918
vn 0.887919 -0.325269 -0.325268
vn 0.325270 -0.887919 -0.325269
vn 0.325270 -0.325270 -0.887919
s 1
g JumpPad_HP
usemtl initialShadingGroup
f 2/1/1 1/25/2 37/54/3 42/21/4
s 2
f 1/26/5 6/22/6 38/8/7 37/53/8
s 3
f 4/2/9 3/27/10 11/34/11 10/16/12
s 1
f 3/28/13 2/1/1 12/3/14 11/33/15
s 2
f 6/22/6 5/29/16 15/37/17 14/23/18
s 3
f 5/29/19 4/2/9 16/5/20 15/37/21
s 4
f 8/4/22 7/30/23 43/59/24 48/12/25
s 1
f 7/31/26 12/3/14 44/13/27 43/58/28
s 3
f 10/16/12 9/32/29 23/42/30 22/6/31
s 4
f 9/32/32 8/4/22 24/7/33 23/42/34
s 2
f 14/23/18 13/35/35 27/46/36 26/24/37
s 5
f 13/36/38 18/17/39 28/9/40 27/45/41
f 18/17/39 17/38/42 21/41/43 20/18/44
s 3
f 17/38/45 16/5/20 22/6/31 21/41/46
s 5
f 20/18/44 19/39/47 35/52/48 34/10/49
s 4
f 19/40/50 24/7/33 36/11/51 35/51/52
s 2
f 26/24/37 25/43/53 39/56/54 38/8/7
s 6
f 25/44/55 30/19/56 40/14/57 39/55/58
f 30/19/56 29/47/59 33/50/60 32/20/61
s 5
f 29/47/62 28/9/40 34/10/49 33/50/63
s 6
f 32/20/61 31/48/64 47/62/65 46/15/66
s 4
f 31/49/67 36/11/51 48/12/25 47/61/68
s 1
f 42/21/4 41/57/69 45/60/70 44/13/27
s 6
f 41/57/71 40/14/57 46/15/66 45/60/72
s 3
f 4/2/9 10/16/12 22/6/31 16/5/20
s 5
f 18/17/39 20/18/44 34/10/49 28/9/40
s 6
f 30/19/56 32/20/61 46/15/66 40/14/57
s 1
f 42/21/4 44/13/27 12/3/14 2/1/1
s 4
f 8/4/22 48/12/25 36/11/51 24/7/33
s 2
f 38/8/7 6/22/6 14/23/18 26/24/37
f 5/29/16 6/22/6 1/26/5 49/64/73
s 1
f 1/25/2 2/1/1 3/28/13 49/63/74
s 3
f 3/27/10 4/2/9 5/29/19 49/64/75
s 1
f 11/33/15 12/3/14 7/31/26 50/66/76
s 4
f 7/30/23 8/4/22 9/32/32 50/65/77
s 3
f 9/32/29 10/16/12 11/34/11 50/65/78
s 5
f 17/38/42 18/17/39 13/36/38 51/67/79
s 2
f 13/35/35 14/23/18 15/37/17 51/67/80
s 3
f 15/37/21 16/5/20 17/38/45 51/67/81
s 4
f 23/42/34 24/7/33 19/40/50 52/68/82
s 5
f 19/39/47 20/18/44 21/41/43 52/68/83
s 3
f 21/41/46 22/6/31 23/42/30 52/68/84
s 6
f 29/47/59 30/19/56 25/44/55 53/70/85
s 2
f 25/43/53 26/24/37 27/46/36 53/69/86
s 5
f 27/45/41 28/9/40 29/47/62 53/70/87
s 4
f 35/51/52 36/11/51 31/49/67 54/72/88
s 6
f 31/48/64 32/20/61 33/50/60 54/71/89
s 5
f 33/50/63 34/10/49 35/52/48 54/71/90
s 1
f 41/57/69 42/21/4 37/54/3 55/74/91
s 2
f 37/53/8 38/8/7 39/56/54 55/73/92
s 6
f 39/55/58 40/14/57 41/57/71 55/74/93
s 4
f 47/61/68 48/12/25 43/59/24 56/76/94
s 1
f 43/58/28 44/13/27 45/60/70 56/75/95
s 6
f 45/60/72 46/15/66 47/62/65 56/75/96
